<!DOCTYPE svg PUBLIC "-//W3C//DTD SVG 1.1//EN" "http://www.w3.org/Graphics/SVG/1.1/DTD/svg11.dtd">
<!-- Uploaded to: SVG Repo, www.svgrepo.com, Transformed by: SVG Repo Mixer Tools -->
<svg width="175px" height="175px" viewBox="0 0 20 20" xmlns="http://www.w3.org/2000/svg" fill="none" stroke="#ffffff" stroke-width="0.0002">
<g id="SVGRepo_bgCarrier" stroke-width="0"/>
<g id="SVGRepo_tracerCarrier" stroke-linecap="round" stroke-linejoin="round" stroke="#CCCCCC" stroke-width="0.04"/>
<g id="SVGRepo_iconCarrier"> <path fill="#ffffff" fill-rule="evenodd" d="M18 5a1 1 0 100-2H2a1 1 0 000 2h16zm-4 4a1 1 0 100-2H6a1 1 0 100 2h8zm5 3a1 1 0 01-1 1H2a1 1 0 110-2h16a1 1 0 011 1zm-5 5a1 1 0 100-2H6a1 1 0 100 2h8z"/> </g>
</svg>